<svg width="512" height="512" viewBox="0 0 512 512" fill="none" xmlns="http://www.w3.org/2000/svg">
<rect width="512" height="512" fill="white"/>
<path d="M179.8 391.8C179.467 391.333 179.1 390.833 178.7 390.3C178.367 389.767 177.967 389.167 177.5 388.5C176.567 387.233 175.733 386.033 175 384.9C174.333 383.7 173.833 382.933 173.5 382.6L170.7 379.4C170.5 379.133 170.267 378.767 170 378.3C169.733 377.833 169.533 377.5 169.4 377.3C169.067 376.833 168.733 376.367 168.4 375.9C168.133 375.367 167.833 374.9 167.5 374.5C167.1 373.967 166.6 373.3 166 372.5C165.467 371.7 165.167 371.3 165.1 371.3L165.2 375.8L164.5 383.9C164.5 384.233 164.467 384.967 164.4 386.1C164.4 387.167 164.367 388.333 164.3 389.6C164.233 390.867 164.167 392.067 164.1 393.2C164.1 394.267 164.1 394.967 164.1 395.3C164.033 396.7 163.933 397.933 163.8 399C163.667 400.067 163.633 401.3 163.7 402.7C163.7 403.367 163.633 404 163.5 404.6C163.433 405.133 163.433 405.733 163.5 406.4C163.5 406.733 163.5 407.067 163.5 407.4C163.5 407.667 163.467 407.967 163.4 408.3C163.467 409.233 163.467 410.2 163.4 411.2C163.333 412.133 163.3 413.067 163.3 414C162.5 414.333 161.767 414.533 161.1 414.6C160.5 414.667 159.733 414.7 158.8 414.7C158.533 414.767 158.167 414.8 157.7 414.8C157.3 414.867 156.9 414.9 156.5 414.9C156.1 414.967 155.767 415 155.5 415C155.233 415.067 155.133 415.1 155.2 415.1C154.867 415.1 154.467 415.133 154 415.2C153.6 415.267 153.133 415.3 152.6 415.3C152.333 415.3 152.067 415.267 151.8 415.2C151.533 415.2 151.267 415.033 151 414.7L151.4 411.6V411C151.333 410 151.267 409.033 151.2 408.1C151.133 407.1 151.167 406.233 151.3 405.5C151.367 405.1 151.4 404.567 151.4 403.9C151.467 403.233 151.5 402.533 151.5 401.8C151.5 401.067 151.5 400.367 151.5 399.7C151.5 398.967 151.467 398.333 151.4 397.8C151.267 396.733 151.167 395.833 151.1 395.1C151.1 394.3 151.1 393.033 151.1 391.3C151.167 389.9 151.2 388.8 151.2 388C151.2 387.2 151.167 386.1 151.1 384.7V383.8C151.1 382.867 151.033 382.033 150.9 381.3C150.833 380.567 150.833 379.933 150.9 379.4C151.167 378 151.233 376.633 151.1 375.3C151.033 373.9 151.067 372.433 151.2 370.9C151.267 369.767 151.267 368.667 151.2 367.6C151.2 366.533 151.2 365.433 151.2 364.3C151.2 363.167 151.233 362.033 151.3 360.9C151.433 359.767 151.5 358.633 151.5 357.5C151.5 356.967 151.533 356.667 151.6 356.6C151.733 356.467 152.067 356.4 152.6 356.4H162.9C163.233 356.733 163.633 357.3 164.1 358.1C164.567 358.833 164.967 359.433 165.3 359.9C165.833 360.567 166.333 361.333 166.8 362.2C167.333 363.067 167.8 363.833 168.2 364.5C168.733 365.633 169.3 366.5 169.9 367.1C170.5 367.7 171 368.5 171.4 369.5C171.733 369.833 172 370.233 172.2 370.7C172.467 371.1 172.733 371.433 173 371.7C173.333 372.233 173.767 372.9 174.3 373.7C174.833 374.5 175.367 375.167 175.9 375.7C176.767 376.833 177.5 377.867 178.1 378.8C178.767 379.733 179.567 380.733 180.5 381.8C181.033 382.533 181.5 383.2 181.9 383.8C182.3 384.4 182.733 385.067 183.2 385.8C183.733 386.4 184.3 387.1 184.9 387.9C185.567 388.633 186.3 389.467 187.1 390.4C187.233 390.333 187.467 390.1 187.8 389.7C188.2 389.233 188.5 388.833 188.7 388.5C189.3 387.9 189.9 387.133 190.5 386.2C191.167 385.267 191.8 384.433 192.4 383.7L193.4 381.7C193.533 381.433 193.7 381.2 193.9 381C194.1 380.733 194.267 380.5 194.4 380.3L197.1 376.2C197.367 375.533 197.9 374.7 198.7 373.7C199.567 372.7 200.4 371.5 201.2 370.1L201.7 369.5C202.367 368.367 202.967 367.3 203.5 366.3C204.033 365.233 204.567 364.133 205.1 363C205.5 362.133 205.9 361.467 206.3 361C206.767 360.467 207.233 359.767 207.7 358.9C207.967 358.367 208.1 358.033 208.1 357.9C208.167 357.7 208.3 357.4 208.5 357H217.6C218.733 357.267 219.533 357.4 220 357.4C220.467 357.4 220.8 357.4 221 357.4C221.333 357.4 221.633 357.433 221.9 357.5C222.233 357.5 222.667 357.5 223.2 357.5V361.6C222.933 362.733 222.767 363.733 222.7 364.6C222.7 365.467 222.7 366.333 222.7 367.2V377.3C222.7 378.5 222.733 379.667 222.8 380.8C222.867 381.867 222.9 383.033 222.9 384.3C222.967 384.633 223 385 223 385.4C223 385.733 223 386.1 223 386.5C223.067 387.233 223.067 387.767 223 388.1C223 388.433 223.033 388.967 223.1 389.7V391C223.033 391.4 222.967 392.1 222.9 393.1C222.833 394.033 222.767 395.033 222.7 396.1C222.633 397.1 222.567 398.1 222.5 399.1C222.5 400.033 222.5 400.7 222.5 401.1C222.5 401.633 222.533 402.3 222.6 403.1C222.667 403.9 222.7 404.567 222.7 405.1C222.7 406.433 222.667 407.833 222.6 409.3C222.6 410.7 222.433 412.1 222.1 413.5V415.8C221.833 416.133 221.467 416.3 221 416.3C220.6 416.367 220.233 416.4 219.9 416.4C219.3 416.267 218.667 416.233 218 416.3C217.4 416.367 216.967 416.4 216.7 416.4H209C208.867 415.467 208.767 414.533 208.7 413.6C208.633 412.667 208.6 411.767 208.6 410.9C208.6 410.5 208.6 409.933 208.6 409.2C208.667 408.467 208.7 407.7 208.7 406.9C208.7 406.033 208.7 405.233 208.7 404.5C208.7 403.767 208.667 403.2 208.6 402.8C208.6 402.333 208.633 401.633 208.7 400.7C208.767 399.7 208.8 398.967 208.8 398.5L208.7 395.1C208.7 394.433 208.667 393.9 208.6 393.5C208.6 393.033 208.6 392.633 208.6 392.3L208.4 390.4C208.4 390.267 208.4 390.1 208.4 389.9C208.467 389.633 208.5 389.433 208.5 389.3C208.233 387.767 208.2 386.267 208.4 384.8C208.667 383.333 208.733 381.9 208.6 380.5C208.667 380.033 208.7 379.6 208.7 379.2C208.7 378.8 208.7 378.4 208.7 378L208.5 372.8V371.7C208.233 371.567 208.1 371.5 208.1 371.5C208.033 371.567 208 371.633 208 371.7C207.133 372.5 206.367 373.367 205.7 374.3C205.033 375.167 204.367 376.167 203.7 377.3L200.6 382.2C200.267 382.8 199.867 383.5 199.4 384.3C198.933 385.033 198.467 385.8 198 386.6C197.533 387.4 197.067 388.167 196.6 388.9C196.2 389.567 195.8 390.133 195.4 390.6C195.2 390.867 194.9 391.267 194.5 391.8C194.167 392.333 193.767 392.933 193.3 393.6C192.9 394.2 192.467 394.833 192 395.5C191.6 396.167 191.2 396.767 190.8 397.3L190.4 397.9C190.067 398.033 189.6 398.1 189 398.1C188.467 398.033 188.033 398 187.7 398C187.1 398 186.5 398.033 185.9 398.1C185.3 398.1 184.7 398.1 184.1 398.1C183.567 397.567 183.033 396.833 182.5 395.9C181.967 394.967 181.5 394.233 181.1 393.7L179.8 391.8Z" fill="#F29204"/>
<path d="M255.376 407.7C255.442 407.3 255.442 406.9 255.376 406.5C255.309 406.1 255.342 405.667 255.476 405.2C255.542 405.067 255.576 404.833 255.576 404.5C255.642 404.167 255.642 403.9 255.576 403.7L255.276 400.6C255.209 400.067 255.209 399.533 255.276 399C255.342 398.4 255.376 397.8 255.376 397.2C255.309 396.933 255.276 396.7 255.276 396.5C255.342 396.233 255.376 395.967 255.376 395.7C255.309 394.967 255.342 394.2 255.476 393.4C255.676 392.6 255.709 391.833 255.576 391.1C255.576 391.033 255.576 390.867 255.576 390.6C255.576 390.333 255.576 390.067 255.576 389.8C255.576 389.467 255.576 389.167 255.576 388.9C255.642 388.633 255.676 388.467 255.676 388.4C255.742 387.133 255.742 385.8 255.676 384.4C255.676 382.867 255.676 381.5 255.676 380.3C255.676 379.033 255.742 377.967 255.876 377.1C255.942 376.767 255.976 376.367 255.976 375.9C255.976 375.367 255.976 374.833 255.976 374.3C255.909 373.567 255.842 372.767 255.776 371.9C255.776 371.033 255.776 370.167 255.776 369.3C255.776 367.767 255.742 366.433 255.676 365.3C255.676 364.1 255.642 362.733 255.576 361.2C255.576 360.667 255.542 360.167 255.476 359.7C255.409 359.167 255.409 358.633 255.476 358.1C255.476 357.967 255.476 357.633 255.476 357.1C255.476 356.567 255.509 356.233 255.576 356.1C255.576 356.033 255.609 355.967 255.676 355.9C255.876 355.7 256.042 355.6 256.176 355.6H263.376C264.309 355.6 265.242 355.6 266.176 355.6C267.176 355.6 268.076 355.633 268.876 355.7C269.609 355.767 270.376 355.933 271.176 356.2C272.042 356.467 272.742 356.7 273.276 356.9C275.009 357.5 276.209 357.967 276.876 358.3C277.609 358.633 278.309 359.067 278.976 359.6C279.576 360.067 280.209 360.5 280.876 360.9C281.542 361.3 282.209 361.767 282.876 362.3C283.542 362.767 284.176 363.367 284.776 364.1C285.442 364.767 286.042 365.633 286.576 366.7C286.976 367.5 287.442 368.333 287.976 369.2C288.576 370.067 288.842 370.967 288.776 371.9C289.109 372.9 289.276 373.767 289.276 374.5C289.342 375.233 289.542 375.9 289.876 376.5C290.209 377.967 290.376 379.5 290.376 381.1C290.376 382.7 290.209 384.167 289.876 385.5C289.942 386.433 289.842 387.367 289.576 388.3C289.376 389.233 289.242 390.167 289.176 391.1C289.109 391.9 289.009 392.533 288.876 393C288.809 393.467 288.676 393.867 288.476 394.2C288.342 394.533 288.176 394.867 287.976 395.2C287.842 395.533 287.676 395.967 287.476 396.5C287.409 396.7 287.242 397.033 286.976 397.5C286.709 397.9 286.409 398.333 286.076 398.8C285.809 399.267 285.509 399.733 285.176 400.2C284.909 400.6 284.742 400.9 284.676 401.1C284.276 402.233 283.742 403.067 283.076 403.6C282.476 404.067 281.676 404.833 280.676 405.9C280.476 406.1 280.142 406.433 279.676 406.9C279.276 407.3 278.809 407.733 278.276 408.2C277.809 408.667 277.342 409.1 276.876 409.5C276.409 409.833 276.042 410.1 275.776 410.3C275.509 410.433 275.042 410.7 274.376 411.1C273.776 411.433 273.109 411.8 272.376 412.2C271.642 412.6 270.942 412.967 270.276 413.3C269.609 413.633 269.176 413.8 268.976 413.8C268.309 413.867 267.442 413.933 266.376 414C265.309 414.067 264.209 414.133 263.076 414.2C261.942 414.267 260.842 414.3 259.776 414.3C258.709 414.367 257.842 414.4 257.176 414.4H256.076C255.876 414.267 255.742 414.133 255.676 414C255.609 413.867 255.542 413.733 255.476 413.6C255.409 413.467 255.376 413.367 255.376 413.3V407.7ZM262.876 394.2C262.809 395.8 262.776 397.667 262.776 399.8C262.776 401.933 262.809 403.8 262.876 405.4C264.809 405.267 266.409 404.967 267.676 404.5C268.942 403.967 270.276 403.167 271.676 402.1C272.609 401.433 273.242 400.733 273.576 400C273.976 399.2 274.342 398.4 274.676 397.6C275.009 397 275.276 396.3 275.476 395.5C275.742 394.7 276.009 393.933 276.276 393.2C276.409 392.8 276.576 392.233 276.776 391.5C277.042 390.767 277.176 390.133 277.176 389.6C277.176 389.267 277.242 388.633 277.376 387.7C277.576 386.7 277.642 386.033 277.576 385.7V383.9C277.576 382.7 277.609 381.4 277.676 380C277.809 378.6 277.776 376.867 277.576 374.8V374.2C277.442 372.467 276.976 371.033 276.176 369.9C275.376 368.767 274.409 367.533 273.276 366.2C272.742 365.533 272.109 365.033 271.376 364.7C270.709 364.367 269.509 363.9 267.776 363.3C267.242 363.1 266.509 362.967 265.576 362.9C264.642 362.767 263.809 362.667 263.076 362.6C262.942 362.867 262.876 363.033 262.876 363.1V363.3V364.1C262.742 364.833 262.676 365.767 262.676 366.9C262.742 367.967 262.776 368.967 262.776 369.9C262.776 371.033 262.809 372.333 262.876 373.8C262.942 375.267 262.909 376.767 262.776 378.3C262.776 378.633 262.742 379 262.676 379.4C262.676 379.8 262.676 380.167 262.676 380.5C262.742 381.367 262.742 382.233 262.676 383.1C262.609 383.967 262.676 384.867 262.876 385.8C262.742 387.2 262.709 388.6 262.776 390C262.909 391.4 262.942 392.8 262.876 394.2Z" fill="#ADCAF2"/>
<path d="M322.538 357C323.338 357.067 324.438 357.067 325.838 357C327.304 356.933 328.671 356.933 329.938 357C331.204 357 332.104 356.967 332.638 356.9C333.238 356.833 333.738 356.8 334.138 356.8C334.604 356.8 335.104 356.9 335.638 357.1V363.6C335.638 365.467 335.604 367.033 335.538 368.3C335.471 369.5 335.404 370.533 335.338 371.4C335.271 372.2 335.204 372.867 335.138 373.4C335.071 373.933 335.038 374.433 335.038 374.9V381.2C335.038 381.8 335.071 382.467 335.138 383.2C335.204 383.933 335.204 384.5 335.138 384.9C334.938 385.433 334.904 386.033 335.038 386.7C335.104 387.033 335.138 387.5 335.138 388.1C335.138 388.633 335.138 389.2 335.138 389.8C335.138 390.4 335.138 390.967 335.138 391.5C335.138 392.033 335.171 392.433 335.238 392.7C335.238 393.367 335.204 394.4 335.138 395.8C335.138 397.2 335.104 398.667 335.038 400.2C335.038 401.667 335.004 403.1 334.938 404.5C334.938 405.9 334.971 406.933 335.038 407.6H339.438C340.104 407.867 340.704 407.967 341.238 407.9C341.771 407.767 342.338 407.833 342.938 408.1H349.038C350.504 408.433 352.038 408.633 353.638 408.7C355.304 408.767 356.804 408.733 358.138 408.6H362.138C362.204 408.733 362.304 408.867 362.438 409C362.504 409.133 362.571 409.267 362.638 409.4C362.704 409.533 362.738 409.667 362.738 409.8C362.671 410.2 362.638 410.733 362.638 411.4C362.638 412 362.638 412.6 362.638 413.2C362.638 413.8 362.604 414.3 362.538 414.7C362.471 415.167 362.404 415.4 362.338 415.4H357.538C355.871 415.467 354.438 415.5 353.238 415.5C352.038 415.567 350.838 415.6 349.638 415.6H344.438C343.371 415.333 342.404 415.2 341.538 415.2C340.671 415.2 339.771 415.2 338.838 415.2H337.738C337.204 415.2 336.638 415.167 336.038 415.1C335.504 415.1 334.938 415.133 334.338 415.2C333.404 415.2 332.238 415.267 330.838 415.4C329.438 415.533 328.204 415.6 327.138 415.6H323.138C322.804 414.667 322.604 413.8 322.538 413C322.538 412.267 322.538 411.6 322.538 411V406C322.871 405.467 322.938 404.933 322.738 404.4C322.604 403.8 322.538 403.167 322.538 402.5L322.738 396.3C322.604 394.967 322.571 393.633 322.638 392.3C322.704 390.9 322.738 389.533 322.738 388.2C322.671 387.933 322.638 387.533 322.638 387C322.638 386.467 322.638 385.9 322.638 385.3C322.638 384.7 322.638 384.133 322.638 383.6C322.638 383 322.604 382.533 322.538 382.2C322.404 381.533 322.438 380.933 322.638 380.4C322.704 380 322.704 379.433 322.638 378.7C322.571 377.967 322.538 377.3 322.538 376.7V357Z" fill="#3C54F4"/>
<path d="M337.109 193.499C341.678 188.482 345.811 183.441 349.439 178.429C365.69 155.976 370.102 136.415 361.862 123.35C355.872 113.854 343.815 108.834 326.992 108.834C317.333 108.834 306.417 110.46 294.745 113.523C293.465 109.478 292.082 105.591 290.597 101.89C280.273 76.1666 266.082 62 250.636 62C235.189 62 220.999 76.1666 210.675 101.89C209.19 105.592 207.807 109.479 206.526 113.523C194.855 110.46 183.939 108.834 174.28 108.834C157.457 108.834 145.399 113.854 139.409 123.35C131.169 136.416 135.582 155.976 151.833 178.429C155.46 183.441 159.593 188.482 164.162 193.499C159.593 198.517 155.46 203.558 151.833 208.57C135.582 231.023 131.169 250.584 139.409 263.649C145.399 273.146 157.456 278.165 174.279 278.165C183.938 278.165 194.855 276.539 206.526 273.476C207.806 277.521 209.189 281.408 210.675 285.11C220.998 310.833 235.189 325 250.636 325C266.082 325 280.273 310.833 290.596 285.11C292.082 281.408 293.464 277.521 294.745 273.475C306.416 276.539 317.332 278.164 326.992 278.165C326.994 278.165 326.994 278.165 326.997 278.165C343.816 278.165 355.873 273.145 361.862 263.649C370.102 250.583 365.69 231.023 349.439 208.57C345.811 203.558 341.678 198.518 337.109 193.499ZM326.992 117.05C336.656 117.05 349.344 118.904 354.913 127.734C361.15 137.623 356.729 154.345 342.784 173.613C339.439 178.234 335.642 182.885 331.448 187.523C323.48 179.425 314.412 171.443 304.489 163.796C303.065 148.666 300.554 134.334 297.05 121.385C307.913 118.554 318.045 117.05 326.992 117.05ZM305.332 174.931C312.778 180.984 319.644 187.212 325.812 193.499C319.645 199.788 312.778 206.014 305.332 212.068C305.683 205.967 305.864 199.767 305.864 193.499C305.864 187.231 305.683 181.031 305.332 174.931ZM295.52 157.142C290.547 153.59 285.399 150.13 280.097 146.786C273.377 142.547 266.597 138.62 259.831 135.017C269.874 130.367 279.734 126.542 289.15 123.632C291.944 133.972 294.086 145.248 295.52 157.142ZM218.3 104.95C227.159 82.8761 238.944 70.2157 250.636 70.2157C262.328 70.2157 274.113 82.8761 282.972 104.95C284.355 108.397 285.644 112.017 286.843 115.782C275.231 119.364 263.012 124.265 250.635 130.32C238.259 124.265 226.041 119.365 214.428 115.782C215.626 112.017 216.916 108.397 218.3 104.95ZM212.121 123.632C221.536 126.542 231.396 130.367 241.44 135.017C234.673 138.62 227.893 142.547 221.173 146.786C215.872 150.13 210.723 153.59 205.751 157.142C207.184 145.248 209.326 133.972 212.121 123.632ZM158.488 173.613C144.542 154.345 140.121 137.623 146.358 127.734C151.928 118.904 164.616 117.05 174.28 117.05C183.227 117.05 193.359 118.554 204.223 121.385C200.719 134.333 198.209 148.666 196.784 163.796C186.861 171.442 177.792 179.425 169.825 187.522C165.63 182.885 161.832 178.234 158.488 173.613ZM195.939 212.069C188.492 206.015 181.627 199.788 175.459 193.501C181.626 187.212 188.492 180.985 195.939 174.932C195.588 181.032 195.406 187.232 195.406 193.501C195.406 199.769 195.587 205.968 195.939 212.069ZM174.279 269.95C164.615 269.95 151.927 268.096 146.357 259.266C140.12 249.377 144.542 232.655 158.487 213.387C161.832 208.766 165.629 204.115 169.823 199.477C177.791 207.575 186.859 215.557 196.782 223.204C198.206 238.334 200.717 252.667 204.221 265.615C193.358 268.446 183.225 269.95 174.279 269.95ZM205.751 229.858C210.724 233.409 215.872 236.87 221.174 240.214C227.894 244.452 234.674 248.38 241.44 251.983C231.396 256.633 221.536 260.458 212.121 263.368C209.326 253.028 207.184 241.752 205.751 229.858ZM282.971 282.05C274.113 304.124 262.328 316.784 250.635 316.784C238.943 316.784 227.158 304.124 218.299 282.05C216.916 278.603 215.626 274.983 214.428 271.217C226.041 267.635 238.259 262.735 250.635 256.68C263.011 262.735 275.23 267.634 286.843 271.216C285.645 274.982 284.355 278.602 282.971 282.05ZM289.15 263.367C279.735 260.457 269.875 256.632 259.831 251.983C266.598 248.38 273.377 244.452 280.097 240.214C285.399 236.87 290.547 233.409 295.52 229.858C294.086 241.752 291.944 253.027 289.15 263.367ZM275.715 233.264C267.384 238.519 258.976 243.282 250.636 247.514C242.295 243.282 233.887 238.519 225.556 233.264C218.26 228.662 211.266 223.841 204.644 218.867C203.97 210.614 203.622 202.126 203.622 193.499C203.622 184.873 203.97 176.385 204.644 168.132C211.266 163.158 218.259 158.336 225.556 153.734C233.887 148.48 242.295 143.716 250.636 139.484C258.976 143.716 267.384 148.48 275.715 153.734C283.012 158.336 290.006 163.158 296.627 168.131C297.301 176.384 297.649 184.872 297.649 193.499C297.649 202.126 297.301 210.613 296.627 218.867C290.005 223.841 283.011 228.662 275.715 233.264ZM354.913 259.266C349.344 268.096 336.659 269.95 326.996 269.95C326.995 269.95 326.993 269.95 326.992 269.95C318.045 269.949 307.913 268.445 297.049 265.615C300.553 252.667 303.064 238.334 304.489 223.204C314.411 215.558 323.48 207.575 331.448 199.478C335.641 204.115 339.439 208.766 342.784 213.387C356.729 232.655 361.149 249.377 354.913 259.266Z" fill="#26150C"/>
<path d="M250.633 224.182C267.579 224.182 281.316 210.444 281.316 193.499C281.316 176.553 267.579 162.816 250.633 162.816C233.688 162.816 219.951 176.553 219.951 193.499C219.951 210.444 233.688 224.182 250.633 224.182Z" fill="#ADCAF2"/>
<path d="M250.636 228.289C231.453 228.289 215.845 212.683 215.845 193.499C215.845 174.315 231.452 158.709 250.636 158.709C269.82 158.709 285.426 174.315 285.426 193.499C285.426 212.683 269.819 228.289 250.636 228.289ZM250.636 166.926C235.982 166.926 224.061 178.847 224.061 193.5C224.061 208.153 235.982 220.075 250.636 220.075C265.289 220.075 277.21 208.153 277.21 193.5C277.209 178.847 265.288 166.926 250.636 166.926Z" fill="#26150C"/>
<path d="M358.389 140.693C366.758 140.693 373.543 133.909 373.543 125.54C373.543 117.171 366.758 110.386 358.389 110.386C350.02 110.386 343.236 117.171 343.236 125.54C343.236 133.909 350.02 140.693 358.389 140.693Z" fill="#F29204"/>
<path d="M358.387 144.803C347.766 144.803 339.126 136.163 339.126 125.542C339.126 114.921 347.766 106.281 358.387 106.281C369.009 106.281 377.649 114.921 377.649 125.542C377.649 136.163 369.009 144.803 358.387 144.803ZM358.387 114.496C352.297 114.496 347.342 119.451 347.342 125.542C347.342 131.633 352.297 136.588 358.387 136.588C364.478 136.588 369.433 131.633 369.433 125.542C369.433 119.451 364.478 114.496 358.387 114.496Z" fill="#26150C"/>
<path d="M154.615 190.638C162.984 190.638 169.768 183.854 169.768 175.485C169.768 167.116 162.984 160.332 154.615 160.332C146.246 160.332 139.461 167.116 139.461 175.485C139.461 183.854 146.246 190.638 154.615 190.638Z" fill="#3C54F4"/>
<path opacity="0.15" d="M232.959 193.5C232.959 178.425 243.834 165.898 258.164 163.315C256.386 162.994 254.558 162.817 252.687 162.817C235.741 162.817 222.005 176.555 222.005 193.5C222.005 210.445 235.742 224.182 252.687 224.182C254.557 224.182 256.385 224.005 258.164 223.684C243.834 221.101 232.959 208.575 232.959 193.5Z" fill="#293133"/>
<path opacity="0.15" d="M356.24 125.542C356.24 119.105 360.255 113.609 365.916 111.414C364.217 110.754 362.371 110.389 360.439 110.389C352.07 110.389 345.286 117.173 345.286 125.542C345.286 133.911 352.07 140.696 360.439 140.696C362.371 140.696 364.217 140.33 365.916 139.671C360.256 137.475 356.24 131.979 356.24 125.542Z" fill="#293133"/>
<path opacity="0.15" d="M152.466 175.487C152.466 169.05 156.481 163.554 162.142 161.359C160.443 160.699 158.597 160.334 156.665 160.334C148.296 160.334 141.511 167.118 141.511 175.487C141.511 183.856 148.296 190.64 156.665 190.64C158.597 190.64 160.443 190.275 162.142 189.616C156.481 187.42 152.466 181.924 152.466 175.487Z" fill="#293133"/>
<path d="M154.613 194.749C143.992 194.749 135.352 186.109 135.352 175.488C135.352 164.866 143.992 156.226 154.613 156.226C165.234 156.226 173.874 164.866 173.874 175.488C173.874 186.109 165.234 194.749 154.613 194.749ZM154.613 164.442C148.522 164.442 143.567 169.396 143.567 175.487C143.567 181.578 148.522 186.533 154.613 186.533C160.704 186.533 165.659 181.578 165.659 175.487C165.659 169.397 160.704 164.442 154.613 164.442Z" fill="#26150C"/>
</svg>
